<svg viewBox="0 0 760 980" xmlns="http://www.w3.org/2000/svg" style="width:100%;max-width:720px;display:block;margin:0 auto;">
  <rect x="0" y="0" width="760" height="980" fill="#F8FAFC"/>
  <rect x="1" y="1" width="758" height="978" fill="none" stroke="#CBD5E1" stroke-width="1.4" rx="8"/>
  <circle cx="475.6" cy="213.0" r="20.0" fill="#3B82F6" fill-opacity="0.85" stroke="white" stroke-width="0.9"/>
  <circle cx="498.0" cy="212.2" r="13.4" fill="#3B82F6" fill-opacity="0.85" stroke="white" stroke-width="0.9"/>
  <circle cx="540.6" cy="231.2" r="14.0" fill="#3B82F6" fill-opacity="0.85" stroke="white" stroke-width="0.9"/>
  <circle cx="511.7" cy="207.2" r="12.9" fill="#3B82F6" fill-opacity="0.85" stroke="white" stroke-width="0.9"/>
  <circle cx="498.7" cy="220.0" r="12.6" fill="#3B82F6" fill-opacity="0.85" stroke="white" stroke-width="0.9"/>
  <circle cx="466.0" cy="199.5" r="12.5" fill="#3B82F6" fill-opacity="0.85" stroke="white" stroke-width="0.9"/>
  <circle cx="459.9" cy="196.8" r="12.5" fill="#3B82F6" fill-opacity="0.85" stroke="white" stroke-width="0.9"/>
  <circle cx="496.9" cy="218.8" r="11.8" fill="#3B82F6" fill-opacity="0.85" stroke="white" stroke-width="0.9"/>
  <circle cx="498.4" cy="205.7" r="11.5" fill="#3B82F6" fill-opacity="0.85" stroke="white" stroke-width="0.9"/>
  <circle cx="484.2" cy="189.5" r="11.4" fill="#3B82F6" fill-opacity="0.85" stroke="white" stroke-width="0.9"/>
  <circle cx="480.4" cy="171.6" r="11.4" fill="#3B82F6" fill-opacity="0.85" stroke="white" stroke-width="0.9"/>
  <circle cx="482.2" cy="192.7" r="10.5" fill="#3B82F6" fill-opacity="0.85" stroke="white" stroke-width="0.9"/>
  <circle cx="500.8" cy="200.4" r="10.6" fill="#3B82F6" fill-opacity="0.85" stroke="white" stroke-width="0.9"/>
  <circle cx="491.8" cy="221.2" r="10.3" fill="#3B82F6" fill-opacity="0.85" stroke="white" stroke-width="0.9"/>
  <circle cx="476.5" cy="198.9" r="10.2" fill="#3B82F6" fill-opacity="0.85" stroke="white" stroke-width="0.9"/>
  <circle cx="515.8" cy="212.4" r="10.5" fill="#3B82F6" fill-opacity="0.85" stroke="white" stroke-width="0.9"/>
  <circle cx="469.6" cy="182.4" r="10.4" fill="#3B82F6" fill-opacity="0.85" stroke="white" stroke-width="0.9"/>
  <circle cx="463.9" cy="182.0" r="10.1" fill="#3B82F6" fill-opacity="0.85" stroke="white" stroke-width="0.9"/>
  <circle cx="467.6" cy="185.4" r="10.2" fill="#3B82F6" fill-opacity="0.85" stroke="white" stroke-width="0.9"/>
  <circle cx="487.4" cy="177.0" r="9.8" fill="#3B82F6" fill-opacity="0.85" stroke="white" stroke-width="0.9"/>
  <circle cx="490.8" cy="183.2" r="9.6" fill="#3B82F6" fill-opacity="0.85" stroke="white" stroke-width="0.9"/>
  <circle cx="459.9" cy="162.4" r="9.3" fill="#3B82F6" fill-opacity="0.85" stroke="white" stroke-width="0.9"/>
  <circle cx="486.0" cy="223.5" r="8.6" fill="#3B82F6" fill-opacity="0.85" stroke="white" stroke-width="0.9"/>
  <circle cx="474.6" cy="191.4" r="8.4" fill="#3B82F6" fill-opacity="0.85" stroke="white" stroke-width="0.9"/>
  <circle cx="471.2" cy="199.8" r="8.3" fill="#3B82F6" fill-opacity="0.85" stroke="white" stroke-width="0.9"/>
  <circle cx="445.2" cy="193.4" r="7.7" fill="#3B82F6" fill-opacity="0.85" stroke="white" stroke-width="0.9"/>
  <circle cx="493.8" cy="230.2" r="7.0" fill="#3B82F6" fill-opacity="0.85" stroke="white" stroke-width="0.9"/>
  <circle cx="546.9" cy="225.3" r="7.0" fill="#3B82F6" fill-opacity="0.85" stroke="white" stroke-width="0.9"/>
  <circle cx="578.9" cy="602.5" r="13.2" fill="#06B6D4" fill-opacity="0.85" stroke="white" stroke-width="0.9"/>
  <circle cx="125.4" cy="688.8" r="10.3" fill="#06B6D4" fill-opacity="0.85" stroke="white" stroke-width="0.9"/>
  <circle cx="312.7" cy="469.0" r="7.4" fill="#06B6D4" fill-opacity="0.85" stroke="white" stroke-width="0.9"/>
  <circle cx="426.1" cy="521.6" r="7.8" fill="#06B6D4" fill-opacity="0.85" stroke="white" stroke-width="0.9"/>
  <circle cx="482.6" cy="174.3" r="8.2" fill="#06B6D4" fill-opacity="0.85" stroke="white" stroke-width="0.9"/>
  <circle cx="322.5" cy="40.0" r="8.1" fill="#06B6D4" fill-opacity="0.85" stroke="white" stroke-width="0.9"/>
  <circle cx="437.2" cy="132.1" r="7.5" fill="#06B6D4" fill-opacity="0.85" stroke="white" stroke-width="0.9"/>
  <circle cx="252.2" cy="191.6" r="7.0" fill="#06B6D4" fill-opacity="0.85" stroke="white" stroke-width="0.9"/>
  <circle cx="443.5" cy="140.2" r="7.2" fill="#06B6D4" fill-opacity="0.85" stroke="white" stroke-width="0.9"/>
  <circle cx="429.1" cy="188.8" r="7.2" fill="#06B6D4" fill-opacity="0.85" stroke="white" stroke-width="0.9"/>
  <circle cx="375.9" cy="81.2" r="6.3" fill="#22C55E" fill-opacity="0.85" stroke="white" stroke-width="0.9"/>
  <circle cx="390.8" cy="97.0" r="5.5" fill="#22C55E" fill-opacity="0.85" stroke="white" stroke-width="0.9"/>
  <circle cx="432.1" cy="156.0" r="5.5" fill="#22C55E" fill-opacity="0.85" stroke="white" stroke-width="0.9"/>
  <circle cx="342.8" cy="58.7" r="5.5" fill="#22C55E" fill-opacity="0.85" stroke="white" stroke-width="0.9"/>
  <circle cx="319.5" cy="155.3" r="5.5" fill="#22C55E" fill-opacity="0.85" stroke="white" stroke-width="0.9"/>
  <circle cx="333.0" cy="127.7" r="5.2" fill="#22C55E" fill-opacity="0.85" stroke="white" stroke-width="0.9"/>
  <circle cx="237.6" cy="107.2" r="5.1" fill="#22C55E" fill-opacity="0.85" stroke="white" stroke-width="0.9"/>
  <circle cx="394.4" cy="150.3" r="5.1" fill="#22C55E" fill-opacity="0.85" stroke="white" stroke-width="0.9"/>
  <circle cx="396.4" cy="174.3" r="5.0" fill="#22C55E" fill-opacity="0.85" stroke="white" stroke-width="0.9"/>
  <circle cx="273.4" cy="143.8" r="5.0" fill="#22C55E" fill-opacity="0.85" stroke="white" stroke-width="0.9"/>
  <circle cx="361.4" cy="166.2" r="4.7" fill="#22C55E" fill-opacity="0.85" stroke="white" stroke-width="0.9"/>
  <circle cx="364.3" cy="141.9" r="4.6" fill="#22C55E" fill-opacity="0.85" stroke="white" stroke-width="0.9"/>
  <circle cx="495.4" cy="242.9" r="6.9" fill="#EAB308" fill-opacity="0.85" stroke="white" stroke-width="0.9"/>
  <circle cx="357.4" cy="455.0" r="6.4" fill="#EAB308" fill-opacity="0.85" stroke="white" stroke-width="0.9"/>
  <circle cx="398.6" cy="198.7" r="6.4" fill="#EAB308" fill-opacity="0.85" stroke="white" stroke-width="0.9"/>
  <circle cx="463.1" cy="247.2" r="6.3" fill="#EAB308" fill-opacity="0.85" stroke="white" stroke-width="0.9"/>
  <circle cx="341.6" cy="228.6" r="6.3" fill="#EAB308" fill-opacity="0.85" stroke="white" stroke-width="0.9"/>
  <circle cx="456.0" cy="214.1" r="6.2" fill="#EAB308" fill-opacity="0.85" stroke="white" stroke-width="0.9"/>
  <circle cx="543.8" cy="223.9" r="6.2" fill="#EAB308" fill-opacity="0.85" stroke="white" stroke-width="0.9"/>
  <circle cx="298.2" cy="197.1" r="5.9" fill="#EAB308" fill-opacity="0.85" stroke="white" stroke-width="0.9"/>
  <circle cx="258.7" cy="294.9" r="5.9" fill="#EAB308" fill-opacity="0.85" stroke="white" stroke-width="0.9"/>
  <circle cx="81.2" cy="361.7" r="5.8" fill="#EAB308" fill-opacity="0.85" stroke="white" stroke-width="0.9"/>
  <circle cx="296.6" cy="254.8" r="5.7" fill="#EAB308" fill-opacity="0.85" stroke="white" stroke-width="0.9"/>
  <circle cx="197.1" cy="224.7" r="5.7" fill="#EAB308" fill-opacity="0.85" stroke="white" stroke-width="0.9"/>
  <circle cx="160.7" cy="343.1" r="5.6" fill="#EAB308" fill-opacity="0.85" stroke="white" stroke-width="0.9"/>
  <circle cx="430.9" cy="263.1" r="5.6" fill="#EAB308" fill-opacity="0.85" stroke="white" stroke-width="0.9"/>
  <circle cx="53.5" cy="244.6" r="5.3" fill="#EAB308" fill-opacity="0.85" stroke="white" stroke-width="0.9"/>
  <circle cx="252.0" cy="389.3" r="5.4" fill="#EAB308" fill-opacity="0.85" stroke="white" stroke-width="0.9"/>
  <circle cx="327.5" cy="293.0" r="5.4" fill="#EAB308" fill-opacity="0.85" stroke="white" stroke-width="0.9"/>
  <circle cx="364.7" cy="317.5" r="5.4" fill="#EAB308" fill-opacity="0.85" stroke="white" stroke-width="0.9"/>
  <circle cx="514.2" cy="261.5" r="5.3" fill="#EAB308" fill-opacity="0.85" stroke="white" stroke-width="0.9"/>
  <circle cx="582.3" cy="250.0" r="5.0" fill="#EAB308" fill-opacity="0.85" stroke="white" stroke-width="0.9"/>
  <circle cx="212.0" cy="315.6" r="4.9" fill="#EAB308" fill-opacity="0.85" stroke="white" stroke-width="0.9"/>
  <circle cx="219.8" cy="157.9" r="4.9" fill="#EAB308" fill-opacity="0.85" stroke="white" stroke-width="0.9"/>
  <circle cx="413.2" cy="241.1" r="4.8" fill="#EAB308" fill-opacity="0.85" stroke="white" stroke-width="0.9"/>
  <circle cx="56.1" cy="243.1" r="4.8" fill="#EAB308" fill-opacity="0.85" stroke="white" stroke-width="0.9"/>
  <circle cx="203.0" cy="169.7" r="4.6" fill="#EAB308" fill-opacity="0.85" stroke="white" stroke-width="0.9"/>
  <circle cx="444.9" cy="232.4" r="4.7" fill="#EAB308" fill-opacity="0.85" stroke="white" stroke-width="0.9"/>
  <circle cx="219.7" cy="157.4" r="4.6" fill="#EAB308" fill-opacity="0.85" stroke="white" stroke-width="0.9"/>
  <circle cx="112.1" cy="287.9" r="4.5" fill="#EAB308" fill-opacity="0.85" stroke="white" stroke-width="0.9"/>
  <circle cx="407.5" cy="291.3" r="4.5" fill="#EAB308" fill-opacity="0.85" stroke="white" stroke-width="0.9"/>
  <circle cx="603.5" cy="273.3" r="4.4" fill="#EAB308" fill-opacity="0.85" stroke="white" stroke-width="0.9"/>
  <circle cx="320.7" cy="245.5" r="4.4" fill="#EAB308" fill-opacity="0.85" stroke="white" stroke-width="0.9"/>
  <circle cx="144.1" cy="214.1" r="4.4" fill="#EAB308" fill-opacity="0.85" stroke="white" stroke-width="0.9"/>
  <circle cx="343.5" cy="366.2" r="4.4" fill="#EAB308" fill-opacity="0.85" stroke="white" stroke-width="0.9"/>
  <circle cx="341.7" cy="404.3" r="4.3" fill="#EAB308" fill-opacity="0.85" stroke="white" stroke-width="0.9"/>
  <circle cx="80.7" cy="237.7" r="4.3" fill="#EAB308" fill-opacity="0.85" stroke="white" stroke-width="0.9"/>
  <circle cx="54.8" cy="381.6" r="4.3" fill="#EAB308" fill-opacity="0.85" stroke="white" stroke-width="0.9"/>
  <circle cx="372.5" cy="213.4" r="4.4" fill="#EAB308" fill-opacity="0.85" stroke="white" stroke-width="0.9"/>
  <circle cx="660.3" cy="443.3" r="7.0" fill="#38BDF8" fill-opacity="0.85" stroke="white" stroke-width="0.9"/>
  <circle cx="645.0" cy="494.8" r="5.5" fill="#38BDF8" fill-opacity="0.85" stroke="white" stroke-width="0.9"/>
  <circle cx="635.0" cy="512.9" r="5.4" fill="#38BDF8" fill-opacity="0.85" stroke="white" stroke-width="0.9"/>
  <circle cx="590.2" cy="569.5" r="5.3" fill="#38BDF8" fill-opacity="0.85" stroke="white" stroke-width="0.9"/>
  <circle cx="465.3" cy="669.1" r="7.0" fill="#38BDF8" fill-opacity="0.85" stroke="white" stroke-width="0.9"/>
  <circle cx="551.7" cy="635.3" r="5.7" fill="#38BDF8" fill-opacity="0.85" stroke="white" stroke-width="0.9"/>
  <circle cx="220.8" cy="721.5" r="4.2" fill="#38BDF8" fill-opacity="0.85" stroke="white" stroke-width="0.9"/>
  <circle cx="511.5" cy="582.1" r="5.8" fill="#A78BFA" fill-opacity="0.85" stroke="white" stroke-width="0.9"/>
  <circle cx="535.1" cy="309.6" r="5.6" fill="#A78BFA" fill-opacity="0.85" stroke="white" stroke-width="0.9"/>
  <circle cx="567.2" cy="399.2" r="5.2" fill="#A78BFA" fill-opacity="0.85" stroke="white" stroke-width="0.9"/>
  <circle cx="430.6" cy="363.2" r="5.1" fill="#A78BFA" fill-opacity="0.85" stroke="white" stroke-width="0.9"/>
  <circle cx="459.0" cy="293.2" r="5.0" fill="#A78BFA" fill-opacity="0.85" stroke="white" stroke-width="0.9"/>
  <circle cx="619.4" cy="480.6" r="4.9" fill="#A78BFA" fill-opacity="0.85" stroke="white" stroke-width="0.9"/>
  <circle cx="489.1" cy="500.0" r="4.9" fill="#A78BFA" fill-opacity="0.85" stroke="white" stroke-width="0.9"/>
  <circle cx="488.6" cy="334.3" r="4.8" fill="#A78BFA" fill-opacity="0.85" stroke="white" stroke-width="0.9"/>
  <circle cx="461.9" cy="621.8" r="4.7" fill="#A78BFA" fill-opacity="0.85" stroke="white" stroke-width="0.9"/>
  <circle cx="431.7" cy="454.3" r="4.6" fill="#A78BFA" fill-opacity="0.85" stroke="white" stroke-width="0.9"/>
  <circle cx="486.1" cy="323.6" r="4.5" fill="#A78BFA" fill-opacity="0.85" stroke="white" stroke-width="0.9"/>
  <circle cx="547.7" cy="465.4" r="4.3" fill="#A78BFA" fill-opacity="0.85" stroke="white" stroke-width="0.9"/>
  <circle cx="554.6" cy="372.7" r="4.2" fill="#A78BFA" fill-opacity="0.85" stroke="white" stroke-width="0.9"/>
  <circle cx="381.4" cy="644.6" r="4.2" fill="#A78BFA" fill-opacity="0.85" stroke="white" stroke-width="0.9"/>
  <circle cx="556.5" cy="440.7" r="3.7" fill="#A78BFA" fill-opacity="0.85" stroke="white" stroke-width="0.9"/>
  <circle cx="638.1" cy="410.9" r="3.9" fill="#A78BFA" fill-opacity="0.85" stroke="white" stroke-width="0.9"/>
  <circle cx="528.4" cy="328.5" r="4.0" fill="#A78BFA" fill-opacity="0.85" stroke="white" stroke-width="0.9"/>
  <circle cx="522.6" cy="361.7" r="3.9" fill="#A78BFA" fill-opacity="0.85" stroke="white" stroke-width="0.9"/>
  <circle cx="603.1" cy="412.5" r="3.6" fill="#A78BFA" fill-opacity="0.85" stroke="white" stroke-width="0.9"/>
  <circle cx="143.4" cy="707.0" r="6.2" fill="#F97316" fill-opacity="0.85" stroke="white" stroke-width="0.9"/>
  <circle cx="317.3" cy="647.7" r="6.1" fill="#F97316" fill-opacity="0.85" stroke="white" stroke-width="0.9"/>
  <circle cx="157.7" cy="537.5" r="5.6" fill="#F97316" fill-opacity="0.85" stroke="white" stroke-width="0.9"/>
  <circle cx="56.9" cy="940.0" r="5.4" fill="#F97316" fill-opacity="0.85" stroke="white" stroke-width="0.9"/>
  <circle cx="103.4" cy="783.5" r="5.3" fill="#F97316" fill-opacity="0.85" stroke="white" stroke-width="0.9"/>
  <circle cx="362.0" cy="562.8" r="4.9" fill="#F97316" fill-opacity="0.85" stroke="white" stroke-width="0.9"/>
  <circle cx="212.4" cy="599.7" r="5.0" fill="#F97316" fill-opacity="0.85" stroke="white" stroke-width="0.9"/>
  <circle cx="114.7" cy="557.4" r="4.9" fill="#F97316" fill-opacity="0.85" stroke="white" stroke-width="0.9"/>
  <circle cx="176.0" cy="432.5" r="4.7" fill="#F97316" fill-opacity="0.85" stroke="white" stroke-width="0.9"/>
  <circle cx="71.4" cy="458.2" r="4.7" fill="#F97316" fill-opacity="0.85" stroke="white" stroke-width="0.9"/>
  <circle cx="220.2" cy="689.7" r="4.6" fill="#F97316" fill-opacity="0.85" stroke="white" stroke-width="0.9"/>
  <circle cx="335.1" cy="605.0" r="4.4" fill="#F97316" fill-opacity="0.85" stroke="white" stroke-width="0.9"/>
  <circle cx="78.0" cy="546.7" r="4.6" fill="#F97316" fill-opacity="0.85" stroke="white" stroke-width="0.9"/>
  <circle cx="130.3" cy="614.2" r="4.5" fill="#F97316" fill-opacity="0.85" stroke="white" stroke-width="0.9"/>
  <circle cx="222.9" cy="510.6" r="4.3" fill="#F97316" fill-opacity="0.85" stroke="white" stroke-width="0.9"/>
  <circle cx="111.5" cy="481.6" r="4.4" fill="#F97316" fill-opacity="0.85" stroke="white" stroke-width="0.9"/>
  <circle cx="266.3" cy="549.2" r="4.3" fill="#F97316" fill-opacity="0.85" stroke="white" stroke-width="0.9"/>
  <circle cx="59.1" cy="452.0" r="4.2" fill="#F97316" fill-opacity="0.85" stroke="white" stroke-width="0.9"/>
  <circle cx="69.4" cy="416.1" r="4.2" fill="#F97316" fill-opacity="0.85" stroke="white" stroke-width="0.9"/>
  <circle cx="40.0" cy="393.8" r="4.1" fill="#F97316" fill-opacity="0.85" stroke="white" stroke-width="0.9"/>
  <circle cx="448.6" cy="175.7" r="10.9" fill="#3B82F6" fill-opacity="0.85" stroke="white" stroke-width="0.9"/>
  <circle cx="288.5" cy="107.4" r="7.1" fill="#22C55E" fill-opacity="0.85" stroke="white" stroke-width="0.9"/>
  <circle cx="499.5" cy="193.0" r="5" fill="none" stroke="#1F2937" stroke-width="2.2"/>
  <text x="511.5" y="197.0" font-size="13.5" font-family="Segoe UI, Arial" fill="#1F2937" font-weight="800">CABA</text>
  <text x="485.6" y="210.0" font-size="13" font-family="Segoe UI, Arial" fill="#1F2937" font-weight="700">La Matanza</text>
  <text x="484.0" y="230.2" font-size="13" font-family="Segoe UI, Arial" fill="#1F2937" font-weight="700">Lomas de Zamora</text>
  <text x="550.6" y="237.2" font-size="13" font-family="Segoe UI, Arial" fill="#1F2937" font-weight="700">La Plata</text>
  <text x="523.7" y="211.2" font-size="13" font-family="Segoe UI, Arial" fill="#1F2937" font-weight="700">Quilmes</text>
  <text x="111.4" y="710.8" font-size="13" font-family="Segoe UI, Arial" fill="#1F2937" font-weight="700">Bahía Blanca</text>
  <text x="322.7" y="475.0" font-size="13" font-family="Segoe UI, Arial" fill="#1F2937" font-weight="700">Olavarría</text>
  <text x="436.1" y="527.6" font-size="13" font-family="Segoe UI, Arial" fill="#1F2937" font-weight="700">Tandil</text>
  <text x="332.5" y="34.0" font-size="13" font-family="Segoe UI, Arial" fill="#1F2937" font-weight="700">San Nicolás</text>
  <text x="450.2" y="129.1" font-size="13" font-family="Segoe UI, Arial" fill="#1F2937" font-weight="700">Zárate</text>
  <text x="242.2" y="181.6" font-size="13" font-family="Segoe UI, Arial" fill="#1F2937" font-weight="700">Junín</text>
  <text x="456.5" y="150.2" font-size="13" font-family="Segoe UI, Arial" fill="#1F2937" font-weight="700">Campana</text>
  <text x="367.4" y="461.0" font-size="13" font-family="Segoe UI, Arial" fill="#1F2937" font-weight="700">Azul</text>
  <text x="386.6" y="188.7" font-size="13" font-family="Segoe UI, Arial" fill="#1F2937" font-weight="700">Mercedes</text>
  <text x="672.3" y="447.3" font-size="13" font-family="Segoe UI, Arial" fill="#1F2937" font-weight="700">La Costa</text>
  <text x="658.0" y="496.8" font-size="13" font-family="Segoe UI, Arial" fill="#1F2937" font-weight="700">Pinamar</text>
  <text x="451.3" y="691.1" font-size="13" font-family="Segoe UI, Arial" fill="#1F2937" font-weight="700">Necochea</text>
  <text x="545.1" y="315.6" font-size="13" font-family="Segoe UI, Arial" fill="#1F2937" font-weight="700">Chascomús</text>
  <text x="129.4" y="729.0" font-size="13" font-family="Segoe UI, Arial" fill="#1F2937" font-weight="700">Coronel Rosales</text>
  <text x="303.3" y="669.7" font-size="13" font-family="Segoe UI, Arial" fill="#1F2937" font-weight="700">Tres Arroyos</text>
  <text x="66.9" y="946.0" font-size="13" font-family="Segoe UI, Arial" fill="#1F2937" font-weight="700">Patagones</text>
  <text x="298.5" y="99.4" font-size="13" font-family="Segoe UI, Arial" fill="#1F2937" font-weight="700">Pergamino</text>
</svg>